<svg version="1.1" xmlns="http://www.w3.org/2000/svg" xmlns:xlink="http://www.w3.org/1999/xlink" width="691" height="1168"><defs/><g><g transform="translate(-38,-6) scale(1,1)"><rect fill="#C0C0C0" stroke="none" x="295" y="23" width="255" height="87" opacity="0.2"/></g><g transform="translate(-38,-6) scale(1,1)"><rect fill="#ffffff" stroke="none" x="288" y="16" width="255" height="87"/></g><g transform="translate(-38,-6) scale(1,1)"><path fill="none" stroke="#000000" d="M 288 16 L 543 16 L 543 103 L 288 103 L 288 16 Z Z" stroke-miterlimit="10"/></g><g transform="translate(-38,-6) scale(1,1)"><path fill="none" stroke="#000000" d="M 288 41 L 543 41" stroke-miterlimit="10"/></g><g transform="translate(-38,-6) scale(1,1)"><path fill="none" stroke="#000000" d="M 288 51 L 543 51" stroke-miterlimit="10"/></g><g transform="translate(-38,-6) scale(1,1)"><g><path fill="none" stroke="none"/><text fill="#000000" stroke="none" font-family="Arial" font-size="13px" font-style="italic" font-weight="bold" text-decoration="none" x="400" y="35.5">Level</text></g></g><g transform="translate(-38,-6) scale(1,1)"><g><path fill="none" stroke="none"/><text fill="#000000" stroke="none" font-family="Arial" font-size="13px" font-style="italic" font-weight="normal" text-decoration="none" x="293" y="68.5">+levelNumber(): int</text></g></g><g transform="translate(-38,-6) scale(1,1)"><g><path fill="none" stroke="none"/><text fill="#000000" stroke="none" font-family="Arial" font-size="13px" font-style="italic" font-weight="normal" text-decoration="none" x="293" y="83.5">+nextBlockType(): BlockType</text></g></g><g transform="translate(-38,-6) scale(1,1)"><g><path fill="none" stroke="none"/><text fill="#000000" stroke="none" font-family="Arial" font-size="13px" font-style="italic" font-weight="normal" text-decoration="none" x="293" y="98.5">+useSequence(sequenceFileName: string)</text></g></g><g transform="translate(-38,-6) scale(1,1)"><rect fill="#C0C0C0" stroke="none" x="175" y="167" width="71" height="47" opacity="0.2"/></g><g transform="translate(-38,-6) scale(1,1)"><rect fill="#ffffff" stroke="none" x="168" y="160" width="71" height="47"/></g><g transform="translate(-38,-6) scale(1,1)"><path fill="none" stroke="#000000" d="M 168 160 L 239 160 L 239 207 L 168 207 L 168 160 Z Z" stroke-miterlimit="10"/></g><g transform="translate(-38,-6) scale(1,1)"><path fill="none" stroke="#000000" d="M 168 185 L 239 185" stroke-miterlimit="10"/></g><g transform="translate(-38,-6) scale(1,1)"><path fill="none" stroke="#000000" d="M 168 195 L 239 195" stroke-miterlimit="10"/></g><g transform="translate(-38,-6) scale(1,1)"><g><path fill="none" stroke="none"/><text fill="#000000" stroke="none" font-family="Arial" font-size="13px" font-style="normal" font-weight="bold" text-decoration="none" x="184.5" y="179.5">Level0</text></g></g><g transform="translate(-38,-6) scale(1,1)"><rect fill="#C0C0C0" stroke="none" x="279" y="167" width="79" height="47" opacity="0.2"/></g><g transform="translate(-38,-6) scale(1,1)"><rect fill="#ffffff" stroke="none" x="272" y="160" width="79" height="47"/></g><g transform="translate(-38,-6) scale(1,1)"><path fill="none" stroke="#000000" d="M 272 160 L 351 160 L 351 207 L 272 207 L 272 160 Z Z" stroke-miterlimit="10"/></g><g transform="translate(-38,-6) scale(1,1)"><path fill="none" stroke="#000000" d="M 272 185 L 351 185" stroke-miterlimit="10"/></g><g transform="translate(-38,-6) scale(1,1)"><path fill="none" stroke="#000000" d="M 272 195 L 351 195" stroke-miterlimit="10"/></g><g transform="translate(-38,-6) scale(1,1)"><g><path fill="none" stroke="none"/><text fill="#000000" stroke="none" font-family="Arial" font-size="13px" font-style="normal" font-weight="bold" text-decoration="none" x="292.5" y="179.5">Level1</text></g></g><g transform="translate(-38,-6) scale(1,1)"><rect fill="#C0C0C0" stroke="none" x="391" y="167" width="71" height="47" opacity="0.2"/></g><g transform="translate(-38,-6) scale(1,1)"><rect fill="#ffffff" stroke="none" x="384" y="160" width="71" height="47"/></g><g transform="translate(-38,-6) scale(1,1)"><path fill="none" stroke="#000000" d="M 384 160 L 455 160 L 455 207 L 384 207 L 384 160 Z Z" stroke-miterlimit="10"/></g><g transform="translate(-38,-6) scale(1,1)"><path fill="none" stroke="#000000" d="M 384 185 L 455 185" stroke-miterlimit="10"/></g><g transform="translate(-38,-6) scale(1,1)"><path fill="none" stroke="#000000" d="M 384 195 L 455 195" stroke-miterlimit="10"/></g><g transform="translate(-38,-6) scale(1,1)"><g><path fill="none" stroke="none"/><text fill="#000000" stroke="none" font-family="Arial" font-size="13px" font-style="normal" font-weight="bold" text-decoration="none" x="400.5" y="179.5">Level2</text></g></g><g transform="translate(-38,-6) scale(1,1)"><rect fill="#C0C0C0" stroke="none" x="487" y="167" width="79" height="47" opacity="0.2"/></g><g transform="translate(-38,-6) scale(1,1)"><rect fill="#ffffff" stroke="none" x="480" y="160" width="79" height="47"/></g><g transform="translate(-38,-6) scale(1,1)"><path fill="none" stroke="#000000" d="M 480 160 L 559 160 L 559 207 L 480 207 L 480 160 Z Z" stroke-miterlimit="10"/></g><g transform="translate(-38,-6) scale(1,1)"><path fill="none" stroke="#000000" d="M 480 185 L 559 185" stroke-miterlimit="10"/></g><g transform="translate(-38,-6) scale(1,1)"><path fill="none" stroke="#000000" d="M 480 195 L 559 195" stroke-miterlimit="10"/></g><g transform="translate(-38,-6) scale(1,1)"><g><path fill="none" stroke="none"/><text fill="#000000" stroke="none" font-family="Arial" font-size="13px" font-style="normal" font-weight="bold" text-decoration="none" x="500.5" y="179.5">Level3</text></g></g><g transform="translate(-38,-6) scale(1,1)"><rect fill="#C0C0C0" stroke="none" x="583" y="167" width="79" height="47" opacity="0.2"/></g><g transform="translate(-38,-6) scale(1,1)"><rect fill="#ffffff" stroke="none" x="576" y="160" width="79" height="47"/></g><g transform="translate(-38,-6) scale(1,1)"><path fill="none" stroke="#000000" d="M 576 160 L 655 160 L 655 207 L 576 207 L 576 160 Z Z" stroke-miterlimit="10"/></g><g transform="translate(-38,-6) scale(1,1)"><path fill="none" stroke="#000000" d="M 576 185 L 655 185" stroke-miterlimit="10"/></g><g transform="translate(-38,-6) scale(1,1)"><path fill="none" stroke="#000000" d="M 576 195 L 655 195" stroke-miterlimit="10"/></g><g transform="translate(-38,-6) scale(1,1)"><g><path fill="none" stroke="none"/><text fill="#000000" stroke="none" font-family="Arial" font-size="13px" font-style="normal" font-weight="bold" text-decoration="none" x="596.5" y="179.5">Level4</text></g></g><g transform="translate(-38,-6) scale(1,1)"><path fill="none" stroke="#000000" d="M 240 161 L 338 104" stroke-miterlimit="10"/></g><g transform="translate(-38,-6) scale(1,1)"><path fill="#FFFFFF" stroke="none" d="M 324.6632711567382 121.49661863793425 L 338 104 L 316.1975309093651 106.94148628280159"/></g><g transform="translate(-38,-6) scale(1,1)"><path fill="none" stroke="#000000" d="M 324.6632711567382 121.49661863793425 L 338 104 L 316.1975309093651 106.94148628280159 L 324.6632711567382 121.49661863793425" stroke-miterlimit="10"/></g><g transform="translate(-38,-6) scale(1,1)"><path fill="none" stroke="#000000" d="M 331 159 L 377 104" stroke-miterlimit="10"/></g><g transform="translate(-38,-6) scale(1,1)"><path fill="#FFFFFF" stroke="none" d="M 370.4182135986535 124.99238166018925 L 377 104 L 357.50211877811057 114.18982962846242"/></g><g transform="translate(-38,-6) scale(1,1)"><path fill="none" stroke="#000000" d="M 370.4182135986535 124.99238166018925 L 377 104 L 357.50211877811057 114.18982962846242 L 370.4182135986535 124.99238166018925" stroke-miterlimit="10"/></g><g transform="translate(-38,-6) scale(1,1)"><path fill="none" stroke="#000000" d="M 418 159 L 416 104" stroke-miterlimit="10"/></g><g transform="translate(-38,-6) scale(1,1)"><path fill="#FFFFFF" stroke="none" d="M 425.1520901683335 124.00598024468418 L 416 104 L 408.325140724759 124.61786931535963"/></g><g transform="translate(-38,-6) scale(1,1)"><path fill="none" stroke="#000000" d="M 425.1520901683335 124.00598024468418 L 416 104 L 408.325140724759 124.61786931535963 L 425.1520901683335 124.00598024468418" stroke-miterlimit="10"/></g><g transform="translate(-38,-6) scale(1,1)"><path fill="none" stroke="#000000" d="M 499 159 L 453 104" stroke-miterlimit="10"/></g><g transform="translate(-38,-6) scale(1,1)"><path fill="#FFFFFF" stroke="none" d="M 472.49788122188943 114.18982962846242 L 453 104 L 459.5817864013465 124.99238166018927"/></g><g transform="translate(-38,-6) scale(1,1)"><path fill="none" stroke="#000000" d="M 472.49788122188943 114.18982962846242 L 453 104 L 459.5817864013465 124.99238166018927 L 472.49788122188943 114.18982962846242" stroke-miterlimit="10"/></g><g transform="translate(-38,-6) scale(1,1)"><path fill="none" stroke="#000000" d="M 576 159 L 488 104" stroke-miterlimit="10"/></g><g transform="translate(-38,-6) scale(1,1)"><path fill="#FFFFFF" stroke="none" d="M 509.6979419840669 107.63308596871381 L 488 104 L 500.7737821896148 121.91174163983726"/></g><g transform="translate(-38,-6) scale(1,1)"><path fill="none" stroke="#000000" d="M 509.6979419840669 107.63308596871381 L 488 104 L 500.7737821896148 121.91174163983726 L 509.6979419840669 107.63308596871381" stroke-miterlimit="10"/></g><g transform="translate(-38,-6) scale(1,1)"><rect fill="#C0C0C0" stroke="none" x="303" y="247" width="328" height="130" opacity="0.2"/></g><g transform="translate(-38,-6) scale(1,1)"><rect fill="#ffffff" stroke="none" x="296" y="240" width="328" height="130"/></g><g transform="translate(-38,-6) scale(1,1)"><path fill="none" stroke="#000000" d="M 296 240 L 624 240 L 624 370 L 296 370 L 296 240 Z Z" stroke-miterlimit="10"/></g><g transform="translate(-38,-6) scale(1,1)"><path fill="none" stroke="#000000" d="M 296 265 L 624 265" stroke-miterlimit="10"/></g><g transform="translate(-38,-6) scale(1,1)"><path fill="none" stroke="#000000" d="M 296 303 L 624 303" stroke-miterlimit="10"/></g><g transform="translate(-38,-6) scale(1,1)"><g><path fill="none" stroke="none"/><text fill="#000000" stroke="none" font-family="Arial" font-size="13px" font-style="italic" font-weight="bold" text-decoration="none" x="443.5" y="259.5">Block</text></g></g><g transform="translate(-38,-6) scale(1,1)"><g><path fill="none" stroke="none"/><text fill="#000000" stroke="none" font-family="Arial" font-size="13px" font-style="normal" font-weight="normal" text-decoration="none" x="301" y="282.5">+position: Position</text></g></g><g transform="translate(-38,-6) scale(1,1)"><g><path fill="none" stroke="none"/><text fill="#000000" stroke="none" font-family="Arial" font-size="13px" font-style="normal" font-weight="normal" text-decoration="none" x="301" y="297.5">#occupiedPositions: Position[*]</text></g></g><g transform="translate(-38,-6) scale(1,1)"><g><path fill="none" stroke="none"/><text fill="#000000" stroke="none" font-family="Arial" font-size="13px" font-style="italic" font-weight="normal" text-decoration="none" x="301" y="320.5">+withRotation(rotationType: RotationType): Block</text></g></g><g transform="translate(-38,-6) scale(1,1)"><g><path fill="none" stroke="none"/><text fill="#000000" stroke="none" font-family="Arial" font-size="13px" font-style="italic" font-weight="normal" text-decoration="none" x="301" y="335.5">+begin(): PositionIterator</text></g></g><g transform="translate(-38,-6) scale(1,1)"><g><path fill="none" stroke="none"/><text fill="#000000" stroke="none" font-family="Arial" font-size="13px" font-style="italic" font-weight="normal" text-decoration="none" x="301" y="350.5">+end(): PositionIterator</text></g></g><g transform="translate(-38,-6) scale(1,1)"><g><path fill="none" stroke="none"/><text fill="#000000" stroke="none" font-family="Arial" font-size="13px" font-style="italic" font-weight="normal" text-decoration="none" x="301" y="365.5">+type(): BlockType</text></g></g><g transform="translate(-38,-6) scale(1,1)"><rect fill="#C0C0C0" stroke="none" x="151" y="415" width="63" height="47" opacity="0.2"/></g><g transform="translate(-38,-6) scale(1,1)"><rect fill="#ffffff" stroke="none" x="144" y="408" width="63" height="47"/></g><g transform="translate(-38,-6) scale(1,1)"><path fill="none" stroke="#000000" d="M 144 408 L 207 408 L 207 455 L 144 455 L 144 408 Z Z" stroke-miterlimit="10"/></g><g transform="translate(-38,-6) scale(1,1)"><path fill="none" stroke="#000000" d="M 144 433 L 207 433" stroke-miterlimit="10"/></g><g transform="translate(-38,-6) scale(1,1)"><path fill="none" stroke="#000000" d="M 144 443 L 207 443" stroke-miterlimit="10"/></g><g transform="translate(-38,-6) scale(1,1)"><g><path fill="none" stroke="none"/><text fill="#000000" stroke="none" font-family="Arial" font-size="13px" font-style="normal" font-weight="bold" text-decoration="none" x="157" y="427.5">BlockI</text></g></g><g transform="translate(-38,-6) scale(1,1)"><rect fill="#C0C0C0" stroke="none" x="239" y="415" width="71" height="47" opacity="0.2"/></g><g transform="translate(-38,-6) scale(1,1)"><rect fill="#ffffff" stroke="none" x="232" y="408" width="71" height="47"/></g><g transform="translate(-38,-6) scale(1,1)"><path fill="none" stroke="#000000" d="M 232 408 L 303 408 L 303 455 L 232 455 L 232 408 Z Z" stroke-miterlimit="10"/></g><g transform="translate(-38,-6) scale(1,1)"><path fill="none" stroke="#000000" d="M 232 433 L 303 433" stroke-miterlimit="10"/></g><g transform="translate(-38,-6) scale(1,1)"><path fill="none" stroke="#000000" d="M 232 443 L 303 443" stroke-miterlimit="10"/></g><g transform="translate(-38,-6) scale(1,1)"><g><path fill="none" stroke="none"/><text fill="#000000" stroke="none" font-family="Arial" font-size="13px" font-style="normal" font-weight="bold" text-decoration="none" x="247.5" y="427.5">BlockJ</text></g></g><g transform="translate(-38,-6) scale(1,1)"><rect fill="#C0C0C0" stroke="none" x="327" y="415" width="63" height="47" opacity="0.2"/></g><g transform="translate(-38,-6) scale(1,1)"><rect fill="#ffffff" stroke="none" x="320" y="408" width="63" height="47"/></g><g transform="translate(-38,-6) scale(1,1)"><path fill="none" stroke="#000000" d="M 320 408 L 383 408 L 383 455 L 320 455 L 320 408 Z Z" stroke-miterlimit="10"/></g><g transform="translate(-38,-6) scale(1,1)"><path fill="none" stroke="#000000" d="M 320 433 L 383 433" stroke-miterlimit="10"/></g><g transform="translate(-38,-6) scale(1,1)"><path fill="none" stroke="#000000" d="M 320 443 L 383 443" stroke-miterlimit="10"/></g><g transform="translate(-38,-6) scale(1,1)"><g><path fill="none" stroke="none"/><text fill="#000000" stroke="none" font-family="Arial" font-size="13px" font-style="normal" font-weight="bold" text-decoration="none" x="331.5" y="427.5">BlockL</text></g></g><g transform="translate(-38,-6) scale(1,1)"><rect fill="#C0C0C0" stroke="none" x="407" y="415" width="63" height="47" opacity="0.2"/></g><g transform="translate(-38,-6) scale(1,1)"><rect fill="#ffffff" stroke="none" x="400" y="408" width="63" height="47"/></g><g transform="translate(-38,-6) scale(1,1)"><path fill="none" stroke="#000000" d="M 400 408 L 463 408 L 463 455 L 400 455 L 400 408 Z Z" stroke-miterlimit="10"/></g><g transform="translate(-38,-6) scale(1,1)"><path fill="none" stroke="#000000" d="M 400 433 L 463 433" stroke-miterlimit="10"/></g><g transform="translate(-38,-6) scale(1,1)"><path fill="none" stroke="#000000" d="M 400 443 L 463 443" stroke-miterlimit="10"/></g><g transform="translate(-38,-6) scale(1,1)"><g><path fill="none" stroke="none"/><text fill="#000000" stroke="none" font-family="Arial" font-size="13px" font-style="normal" font-weight="bold" text-decoration="none" x="410" y="427.5">BlockO</text></g></g><g transform="translate(-38,-6) scale(1,1)"><rect fill="#C0C0C0" stroke="none" x="479" y="415" width="63" height="47" opacity="0.2"/></g><g transform="translate(-38,-6) scale(1,1)"><rect fill="#ffffff" stroke="none" x="472" y="408" width="63" height="47"/></g><g transform="translate(-38,-6) scale(1,1)"><path fill="none" stroke="#000000" d="M 472 408 L 535 408 L 535 455 L 472 455 L 472 408 Z Z" stroke-miterlimit="10"/></g><g transform="translate(-38,-6) scale(1,1)"><path fill="none" stroke="#000000" d="M 472 433 L 535 433" stroke-miterlimit="10"/></g><g transform="translate(-38,-6) scale(1,1)"><path fill="none" stroke="#000000" d="M 472 443 L 535 443" stroke-miterlimit="10"/></g><g transform="translate(-38,-6) scale(1,1)"><g><path fill="none" stroke="none"/><text fill="#000000" stroke="none" font-family="Arial" font-size="13px" font-style="normal" font-weight="bold" text-decoration="none" x="482.5" y="427.5">BlockS</text></g></g><g transform="translate(-38,-6) scale(1,1)"><rect fill="#C0C0C0" stroke="none" x="551" y="415" width="52" height="48" opacity="0.2"/></g><g transform="translate(-38,-6) scale(1,1)"><rect fill="#ffffff" stroke="none" x="544" y="408" width="52" height="48"/></g><g transform="translate(-38,-6) scale(1,1)"><path fill="none" stroke="#000000" d="M 544 408 L 596 408 L 596 456 L 544 456 L 544 408 Z Z" stroke-miterlimit="10"/></g><g transform="translate(-38,-6) scale(1,1)"><path fill="none" stroke="#000000" d="M 544 433 L 596 433" stroke-miterlimit="10"/></g><g transform="translate(-38,-6) scale(1,1)"><path fill="none" stroke="#000000" d="M 544 443 L 596 443" stroke-miterlimit="10"/></g><g transform="translate(-38,-6) scale(1,1)"><g><path fill="none" stroke="none"/><text fill="#000000" stroke="none" font-family="Arial" font-size="13px" font-style="normal" font-weight="bold" text-decoration="none" x="549.5" y="427.5">BlockZ</text></g></g><g transform="translate(-38,-6) scale(1,1)"><rect fill="#C0C0C0" stroke="none" x="647" y="415" width="52" height="44" opacity="0.2"/></g><g transform="translate(-38,-6) scale(1,1)"><rect fill="#ffffff" stroke="none" x="640" y="408" width="52" height="44"/></g><g transform="translate(-38,-6) scale(1,1)"><path fill="none" stroke="#000000" d="M 640 408 L 692 408 L 692 452 L 640 452 L 640 408 Z Z" stroke-miterlimit="10"/></g><g transform="translate(-38,-6) scale(1,1)"><path fill="none" stroke="#000000" d="M 640 433 L 692 433" stroke-miterlimit="10"/></g><g transform="translate(-38,-6) scale(1,1)"><path fill="none" stroke="#000000" d="M 640 443 L 692 443" stroke-miterlimit="10"/></g><g transform="translate(-38,-6) scale(1,1)"><g><path fill="none" stroke="none"/><text fill="#000000" stroke="none" font-family="Arial" font-size="13px" font-style="normal" font-weight="bold" text-decoration="none" x="645.5" y="427.5">BlockT</text></g></g><g transform="translate(-38,-6) scale(1,1)"><path fill="none" stroke="#000000" d="M 208 416 L 311 371" stroke-miterlimit="10"/></g><g transform="translate(-38,-6) scale(1,1)"><path fill="#FFFFFF" stroke="none" d="M 295.74521230910784 386.8521750086796 L 311 371 L 289.00405573301583 371.42241662340234"/></g><g transform="translate(-38,-6) scale(1,1)"><path fill="none" stroke="#000000" d="M 295.74521230910784 386.8521750086796 L 311 371 L 289.00405573301583 371.42241662340234 L 295.74521230910784 386.8521750086796" stroke-miterlimit="10"/></g><g transform="translate(-38,-6) scale(1,1)"><path fill="none" stroke="#000000" d="M 304 407 L 359 371" stroke-miterlimit="10"/></g><g transform="translate(-38,-6) scale(1,1)"><path fill="#FFFFFF" stroke="none" d="M 346.60451110208874 389.175584034131 L 359 371 L 337.3829870216044 375.0871444667244"/></g><g transform="translate(-38,-6) scale(1,1)"><path fill="none" stroke="#000000" d="M 346.60451110208874 389.175584034131 L 359 371 L 337.3829870216044 375.0871444667244 L 346.60451110208874 389.175584034131" stroke-miterlimit="10"/></g><g transform="translate(-38,-6) scale(1,1)"><path fill="none" stroke="#000000" d="M 372 407 L 403 371" stroke-miterlimit="10"/></g><g transform="translate(-38,-6) scale(1,1)"><path fill="#FFFFFF" stroke="none" d="M 396.1169215334434 391.89553136015513 L 403 371 L 383.35755661959695 380.9083004621206"/></g><g transform="translate(-38,-6) scale(1,1)"><path fill="none" stroke="#000000" d="M 396.1169215334434 391.89553136015513 L 403 371 L 383.35755661959695 380.9083004621206 L 396.1169215334434 391.89553136015513" stroke-miterlimit="10"/></g><g transform="translate(-38,-6) scale(1,1)"><path fill="none" stroke="#000000" d="M 437 407 L 445 371" stroke-miterlimit="10"/></g><g transform="translate(-38,-6) scale(1,1)"><path fill="#FFFFFF" stroke="none" d="M 448.8093661070217 392.6676886137556 L 445 371 L 432.3722590548721 389.01499815772235"/></g><g transform="translate(-38,-6) scale(1,1)"><path fill="none" stroke="#000000" d="M 448.8093661070217 392.6676886137556 L 445 371 L 432.3722590548721 389.01499815772235 L 448.8093661070217 392.6676886137556" stroke-miterlimit="10"/></g><g transform="translate(-38,-6) scale(1,1)"><path fill="none" stroke="#000000" d="M 495 407 L 483 371" stroke-miterlimit="10"/></g><g transform="translate(-38,-6) scale(1,1)"><path fill="#FFFFFF" stroke="none" d="M 497.41443830992284 387.61998700990557 L 483 371 L 481.44044155800503 392.9446525938781"/></g><g transform="translate(-38,-6) scale(1,1)"><path fill="none" stroke="#000000" d="M 497.41443830992284 387.61998700990557 L 483 371 L 481.44044155800503 392.9446525938781 L 497.41443830992284 387.61998700990557" stroke-miterlimit="10"/></g><g transform="translate(-38,-6) scale(1,1)"><path fill="none" stroke="#000000" d="M 548 407 L 517 371" stroke-miterlimit="10"/></g><g transform="translate(-38,-6) scale(1,1)"><path fill="#FFFFFF" stroke="none" d="M 536.642443380403 380.9083004621206 L 517 371 L 523.8830784665565 391.89553136015513"/></g><g transform="translate(-38,-6) scale(1,1)"><path fill="none" stroke="#000000" d="M 536.642443380403 380.9083004621206 L 517 371 L 523.8830784665565 391.89553136015513 L 536.642443380403 380.9083004621206" stroke-miterlimit="10"/></g><g transform="translate(-38,-6) scale(1,1)"><path fill="none" stroke="#000000" d="M 639 414 L 569 371" stroke-miterlimit="10"/></g><g transform="translate(-38,-6) scale(1,1)"><path fill="#FFFFFF" stroke="none" d="M 590.725418026672 374.46499806152303 L 569 371 L 581.912066784671 388.8123140368734"/></g><g transform="translate(-38,-6) scale(1,1)"><path fill="none" stroke="#000000" d="M 590.725418026672 374.46499806152303 L 569 371 L 581.912066784671 388.8123140368734 L 590.725418026672 374.46499806152303" stroke-miterlimit="10"/></g><g transform="translate(-38,-6) scale(1,1)"><rect fill="#C0C0C0" stroke="none" x="287" y="503" width="119" height="72" opacity="0.2"/></g><g transform="translate(-38,-6) scale(1,1)"><rect fill="#ffffff" stroke="none" x="280" y="496" width="119" height="72"/></g><g transform="translate(-38,-6) scale(1,1)"><path fill="none" stroke="#000000" d="M 280 496 L 399 496 L 399 568 L 280 568 L 280 496 Z Z" stroke-miterlimit="10"/></g><g transform="translate(-38,-6) scale(1,1)"><path fill="none" stroke="#000000" d="M 280 521 L 399 521" stroke-miterlimit="10"/></g><g transform="translate(-38,-6) scale(1,1)"><path fill="none" stroke="#000000" d="M 280 559 L 399 559" stroke-miterlimit="10"/></g><g transform="translate(-38,-6) scale(1,1)"><g><path fill="none" stroke="none"/><text fill="#000000" stroke="none" font-family="Arial" font-size="13px" font-style="normal" font-weight="bold" text-decoration="none" x="316" y="515.5">Position</text></g></g><g transform="translate(-38,-6) scale(1,1)"><g><path fill="none" stroke="none"/><text fill="#000000" stroke="none" font-family="Arial" font-size="13px" font-style="normal" font-weight="normal" text-decoration="none" x="285" y="538.5">+x: int</text></g></g><g transform="translate(-38,-6) scale(1,1)"><g><path fill="none" stroke="none"/><text fill="#000000" stroke="none" font-family="Arial" font-size="13px" font-style="normal" font-weight="normal" text-decoration="none" x="285" y="553.5">+y: int</text></g></g><g transform="translate(-38,-6) scale(1,1)"><rect fill="#C0C0C0" stroke="none" x="263" y="599" width="254" height="265" opacity="0.2"/></g><g transform="translate(-38,-6) scale(1,1)"><rect fill="#ffffff" stroke="none" x="256" y="592" width="254" height="265"/></g><g transform="translate(-38,-6) scale(1,1)"><path fill="none" stroke="#000000" d="M 256 592 L 510 592 L 510 857 L 256 857 L 256 592 Z Z" stroke-miterlimit="10"/></g><g transform="translate(-38,-6) scale(1,1)"><path fill="none" stroke="#000000" d="M 256 617 L 510 617" stroke-miterlimit="10"/></g><g transform="translate(-38,-6) scale(1,1)"><path fill="none" stroke="#000000" d="M 256 790 L 510 790" stroke-miterlimit="10"/></g><g transform="translate(-38,-6) scale(1,1)"><g><path fill="none" stroke="none"/><text fill="#000000" stroke="none" font-family="Arial" font-size="13px" font-style="normal" font-weight="bold" text-decoration="none" x="366" y="611.5">Board</text></g></g><g transform="translate(-38,-6) scale(1,1)"><g><path fill="none" stroke="none"/><text fill="#000000" stroke="none" font-family="Arial" font-size="13px" font-style="normal" font-weight="normal" text-decoration="none" x="261" y="634.5">-cells: Cell[18][11]</text></g></g><g transform="translate(-38,-6) scale(1,1)"><g><path fill="none" stroke="none"/><text fill="#000000" stroke="none" font-family="Arial" font-size="13px" font-style="normal" font-weight="normal" text-decoration="none" x="261" y="649.5">-activeBlock: Block*</text></g></g><g transform="translate(-38,-6) scale(1,1)"><g><path fill="none" stroke="none"/><text fill="#000000" stroke="none" font-family="Arial" font-size="13px" font-style="normal" font-weight="normal" text-decoration="none" x="261" y="664.5">-score: Score</text></g></g><g transform="translate(-38,-6) scale(1,1)"><g><path fill="none" stroke="none"/><text fill="#000000" stroke="none" font-family="Arial" font-size="13px" font-style="normal" font-weight="normal" text-decoration="none" x="261" y="679.5">-level: Level*</text></g></g><g transform="translate(-38,-6) scale(1,1)"><g><path fill="none" stroke="none"/><text fill="#000000" stroke="none" font-family="Arial" font-size="13px" font-style="normal" font-weight="normal" text-decoration="none" x="261" y="694.5">+gameStarted: Event</text></g></g><g transform="translate(-38,-6) scale(1,1)"><g><path fill="none" stroke="none"/><text fill="#000000" stroke="none" font-family="Arial" font-size="13px" font-style="normal" font-weight="normal" text-decoration="none" x="261" y="709.5">+cellUpdated: Event</text></g></g><g transform="translate(-38,-6) scale(1,1)"><g><path fill="none" stroke="none"/><text fill="#000000" stroke="none" font-family="Arial" font-size="13px" font-style="normal" font-weight="normal" text-decoration="none" x="261" y="724.5">+scoreUpdated: Event</text></g></g><g transform="translate(-38,-6) scale(1,1)"><g><path fill="none" stroke="none"/><text fill="#000000" stroke="none" font-family="Arial" font-size="13px" font-style="normal" font-weight="normal" text-decoration="none" x="261" y="739.5">+hiScoreUpdated: Event</text></g></g><g transform="translate(-38,-6) scale(1,1)"><g><path fill="none" stroke="none"/><text fill="#000000" stroke="none" font-family="Arial" font-size="13px" font-style="normal" font-weight="normal" text-decoration="none" x="261" y="754.5">+nextBlockGenerated: Event</text></g></g><g transform="translate(-38,-6) scale(1,1)"><g><path fill="none" stroke="none"/><text fill="#000000" stroke="none" font-family="Arial" font-size="13px" font-style="normal" font-weight="normal" text-decoration="none" x="261" y="769.5">+gameEnded: Event</text></g></g><g transform="translate(-38,-6) scale(1,1)"><g><path fill="none" stroke="none"/><text fill="#000000" stroke="none" font-family="Arial" font-size="13px" font-style="normal" font-weight="normal" text-decoration="none" x="261" y="784.5">-seed: int</text></g></g><g transform="translate(-38,-6) scale(1,1)"><g><path fill="none" stroke="none"/><text fill="#000000" stroke="none" font-family="Arial" font-size="13px" font-style="normal" font-weight="normal" text-decoration="none" x="261" y="807.5">+reset()</text></g></g><g transform="translate(-38,-6) scale(1,1)"><g><path fill="none" stroke="none"/><text fill="#000000" stroke="none" font-family="Arial" font-size="13px" font-style="normal" font-weight="normal" text-decoration="none" x="261" y="822.5">+executeCommand(command: Command)</text></g></g><g transform="translate(-38,-6) scale(1,1)"><g><path fill="none" stroke="none"/><text fill="#000000" stroke="none" font-family="Arial" font-size="13px" font-style="normal" font-weight="normal" text-decoration="none" x="261" y="837.5">+seedWith(seed: int)</text></g></g><g transform="translate(-38,-6) scale(1,1)"><g><path fill="none" stroke="none"/><text fill="#000000" stroke="none" font-family="Arial" font-size="13px" font-style="normal" font-weight="normal" text-decoration="none" x="261" y="852.5">+setStartLevel(level: int)</text></g></g><g transform="translate(-38,-6) scale(1,1)"><rect fill="#C0C0C0" stroke="none" x="151" y="927" width="147" height="57" opacity="0.2"/></g><g transform="translate(-38,-6) scale(1,1)"><rect fill="#ffffff" stroke="none" x="144" y="920" width="147" height="57"/></g><g transform="translate(-38,-6) scale(1,1)"><path fill="none" stroke="#000000" d="M 144 920 L 291 920 L 291 977 L 144 977 L 144 920 Z Z" stroke-miterlimit="10"/></g><g transform="translate(-38,-6) scale(1,1)"><path fill="none" stroke="#000000" d="M 144 945 L 291 945" stroke-miterlimit="10"/></g><g transform="translate(-38,-6) scale(1,1)"><path fill="none" stroke="#000000" d="M 144 968 L 291 968" stroke-miterlimit="10"/></g><g transform="translate(-38,-6) scale(1,1)"><g><path fill="none" stroke="none"/><text fill="#000000" stroke="none" font-family="Arial" font-size="13px" font-style="normal" font-weight="bold" text-decoration="none" x="206.5" y="939.5">Cell</text></g></g><g transform="translate(-38,-6) scale(1,1)"><g><path fill="none" stroke="none"/><text fill="#000000" stroke="none" font-family="Arial" font-size="13px" font-style="normal" font-weight="normal" text-decoration="none" x="149" y="962.5">+blockType: BlockType</text></g></g><g transform="translate(-38,-6) scale(1,1)"><rect fill="#C0C0C0" stroke="none" x="63" y="543" width="158" height="102" opacity="0.2"/></g><g transform="translate(-38,-6) scale(1,1)"><rect fill="#ffffff" stroke="none" x="56" y="536" width="158" height="102"/></g><g transform="translate(-38,-6) scale(1,1)"><path fill="none" stroke="#000000" d="M 56 536 L 214 536 L 214 638 L 56 638 L 56 536 Z Z" stroke-miterlimit="10"/></g><g transform="translate(-38,-6) scale(1,1)"><path fill="none" stroke="#000000" d="M 56 561 L 214 561" stroke-miterlimit="10"/></g><g transform="translate(-38,-6) scale(1,1)"><path fill="none" stroke="#000000" d="M 56 629 L 214 629" stroke-miterlimit="10"/></g><g transform="translate(-38,-6) scale(1,1)"><g><path fill="none" stroke="none"/><text fill="#000000" stroke="none" font-family="Arial" font-size="13px" font-style="normal" font-weight="bold" text-decoration="none" x="118" y="555.5">Score</text></g></g><g transform="translate(-38,-6) scale(1,1)"><g><path fill="none" stroke="none"/><text fill="#000000" stroke="none" font-family="Arial" font-size="13px" font-style="normal" font-weight="normal" text-decoration="none" x="61" y="578.5">-currentScore: int</text></g></g><g transform="translate(-38,-6) scale(1,1)"><g><path fill="none" stroke="none"/><text fill="#000000" stroke="none" font-family="Arial" font-size="13px" font-style="normal" font-weight="normal" text-decoration="none" x="61" y="593.5">-hiScore: int</text></g></g><g transform="translate(-38,-6) scale(1,1)"><g><path fill="none" stroke="none"/><text fill="#000000" stroke="none" font-family="Arial" font-size="13px" font-style="normal" font-weight="normal" text-decoration="none" x="61" y="608.5">+scoreUpdated: Event</text></g></g><g transform="translate(-38,-6) scale(1,1)"><g><path fill="none" stroke="none"/><text fill="#000000" stroke="none" font-family="Arial" font-size="13px" font-style="normal" font-weight="normal" text-decoration="none" x="61" y="623.5">+hiScoreUpdated: Event</text></g></g><g transform="translate(-38,-6) scale(1,1)"><rect fill="#C0C0C0" stroke="none" x="551" y="567" width="143" height="72" opacity="0.2"/></g><g transform="translate(-38,-6) scale(1,1)"><rect fill="#ffffff" stroke="none" x="544" y="560" width="143" height="72"/></g><g transform="translate(-38,-6) scale(1,1)"><path fill="none" stroke="#000000" d="M 544 560 L 687 560 L 687 632 L 544 632 L 544 560 Z Z" stroke-miterlimit="10"/></g><g transform="translate(-38,-6) scale(1,1)"><path fill="none" stroke="#000000" d="M 544 585 L 687 585" stroke-miterlimit="10"/></g><g transform="translate(-38,-6) scale(1,1)"><path fill="none" stroke="#000000" d="M 544 623 L 687 623" stroke-miterlimit="10"/></g><g transform="translate(-38,-6) scale(1,1)"><g><path fill="none" stroke="none"/><text fill="#000000" stroke="none" font-family="Arial" font-size="13px" font-style="normal" font-weight="bold" text-decoration="none" x="586" y="579.5">Command</text></g></g><g transform="translate(-38,-6) scale(1,1)"><g><path fill="none" stroke="none"/><text fill="#000000" stroke="none" font-family="Arial" font-size="13px" font-style="normal" font-weight="normal" text-decoration="none" x="549" y="602.5">+type: CommandType</text></g></g><g transform="translate(-38,-6) scale(1,1)"><g><path fill="none" stroke="none"/><text fill="#000000" stroke="none" font-family="Arial" font-size="13px" font-style="normal" font-weight="normal" text-decoration="none" x="549" y="617.5">+arguments: string[*]</text></g></g><g transform="translate(-38,-6) scale(1,1)"><rect fill="#C0C0C0" stroke="none" x="535" y="815" width="176" height="57" opacity="0.2"/></g><g transform="translate(-38,-6) scale(1,1)"><rect fill="#ffffff" stroke="none" x="528" y="808" width="176" height="57"/></g><g transform="translate(-38,-6) scale(1,1)"><path fill="none" stroke="#000000" d="M 528 808 L 704 808 L 704 865 L 528 865 L 528 808 Z Z" stroke-miterlimit="10"/></g><g transform="translate(-38,-6) scale(1,1)"><path fill="none" stroke="#000000" d="M 528 833 L 704 833" stroke-miterlimit="10"/></g><g transform="translate(-38,-6) scale(1,1)"><path fill="none" stroke="#000000" d="M 528 843 L 704 843" stroke-miterlimit="10"/></g><g transform="translate(-38,-6) scale(1,1)"><g><path fill="none" stroke="none"/><text fill="#000000" stroke="none" font-family="Arial" font-size="13px" font-style="normal" font-weight="bold" text-decoration="none" x="557" y="827.5">CommandInterpreter</text></g></g><g transform="translate(-38,-6) scale(1,1)"><g><path fill="none" stroke="none"/><text fill="#000000" stroke="none" font-family="Arial" font-size="13px" font-style="normal" font-weight="normal" text-decoration="none" x="533" y="860.5">+nextCommand(): Command</text></g></g><g transform="translate(-38,-6) scale(1,1)"><rect fill="#C0C0C0" stroke="none" x="487" y="935" width="159" height="132" opacity="0.2"/></g><g transform="translate(-38,-6) scale(1,1)"><rect fill="#ffffff" stroke="none" x="480" y="928" width="159" height="132"/></g><g transform="translate(-38,-6) scale(1,1)"><path fill="none" stroke="#000000" d="M 480 928 L 639 928 L 639 1060 L 480 1060 L 480 928 Z Z" stroke-miterlimit="10"/></g><g transform="translate(-38,-6) scale(1,1)"><path fill="none" stroke="#000000" d="M 480 953 L 639 953" stroke-miterlimit="10"/></g><g transform="translate(-38,-6) scale(1,1)"><path fill="none" stroke="#000000" d="M 480 963 L 639 963" stroke-miterlimit="10"/></g><g transform="translate(-38,-6) scale(1,1)"><g><path fill="none" stroke="none"/><text fill="#000000" stroke="none" font-family="Arial" font-size="13px" font-style="italic" font-weight="bold" text-decoration="none" x="538" y="947.5">Display</text></g></g><g transform="translate(-38,-6) scale(1,1)"><g><path fill="none" stroke="none"/><text fill="#000000" stroke="none" font-family="Arial" font-size="13px" font-style="italic" font-weight="normal" text-decoration="none" x="485" y="980.5">-onGameStarted()</text></g></g><g transform="translate(-38,-6) scale(1,1)"><g><path fill="none" stroke="none"/><text fill="#000000" stroke="none" font-family="Arial" font-size="13px" font-style="italic" font-weight="normal" text-decoration="none" x="485" y="995.5">-onCellUpdated()</text></g></g><g transform="translate(-38,-6) scale(1,1)"><g><path fill="none" stroke="none"/><text fill="#000000" stroke="none" font-family="Arial" font-size="13px" font-style="italic" font-weight="normal" text-decoration="none" x="485" y="1010.5">-onScoreUpdated()</text></g></g><g transform="translate(-38,-6) scale(1,1)"><g><path fill="none" stroke="none"/><text fill="#000000" stroke="none" font-family="Arial" font-size="13px" font-style="italic" font-weight="normal" text-decoration="none" x="485" y="1025.5">-onHiScoreUpdated()</text></g></g><g transform="translate(-38,-6) scale(1,1)"><g><path fill="none" stroke="none"/><text fill="#000000" stroke="none" font-family="Arial" font-size="13px" font-style="italic" font-weight="normal" text-decoration="none" x="485" y="1040.5">-onNextBlockGenerated()</text></g></g><g transform="translate(-38,-6) scale(1,1)"><g><path fill="none" stroke="none"/><text fill="#000000" stroke="none" font-family="Arial" font-size="13px" font-style="italic" font-weight="normal" text-decoration="none" x="485" y="1055.5">-onGameEnded()</text></g></g><g transform="translate(-38,-6) scale(1,1)"><rect fill="#C0C0C0" stroke="none" x="359" y="1127" width="111" height="44" opacity="0.2"/></g><g transform="translate(-38,-6) scale(1,1)"><rect fill="#ffffff" stroke="none" x="352" y="1120" width="111" height="44"/></g><g transform="translate(-38,-6) scale(1,1)"><path fill="none" stroke="#000000" d="M 352 1120 L 463 1120 L 463 1164 L 352 1164 L 352 1120 Z Z" stroke-miterlimit="10"/></g><g transform="translate(-38,-6) scale(1,1)"><path fill="none" stroke="#000000" d="M 352 1145 L 463 1145" stroke-miterlimit="10"/></g><g transform="translate(-38,-6) scale(1,1)"><path fill="none" stroke="#000000" d="M 352 1155 L 463 1155" stroke-miterlimit="10"/></g><g transform="translate(-38,-6) scale(1,1)"><g><path fill="none" stroke="none"/><text fill="#000000" stroke="none" font-family="Arial" font-size="13px" font-style="normal" font-weight="bold" text-decoration="none" x="363.5" y="1139.5">GraphicDisplay</text></g></g><g transform="translate(-38,-6) scale(1,1)"><rect fill="#C0C0C0" stroke="none" x="615" y="1127" width="111" height="44" opacity="0.2"/></g><g transform="translate(-38,-6) scale(1,1)"><rect fill="#ffffff" stroke="none" x="608" y="1120" width="111" height="44"/></g><g transform="translate(-38,-6) scale(1,1)"><path fill="none" stroke="#000000" d="M 608 1120 L 719 1120 L 719 1164 L 608 1164 L 608 1120 Z Z" stroke-miterlimit="10"/></g><g transform="translate(-38,-6) scale(1,1)"><path fill="none" stroke="#000000" d="M 608 1145 L 719 1145" stroke-miterlimit="10"/></g><g transform="translate(-38,-6) scale(1,1)"><path fill="none" stroke="#000000" d="M 608 1155 L 719 1155" stroke-miterlimit="10"/></g><g transform="translate(-38,-6) scale(1,1)"><g><path fill="none" stroke="none"/><text fill="#000000" stroke="none" font-family="Arial" font-size="13px" font-style="normal" font-weight="bold" text-decoration="none" x="629" y="1139.5">TextDisplay</text></g></g><g transform="translate(-38,-6) scale(1,1)"><path fill="none" stroke="#000000" d="M 431 1119 L 490 1061" stroke-miterlimit="10"/></g><g transform="translate(-38,-6) scale(1,1)"><path fill="#FFFFFF" stroke="none" d="M 481.40755738928755 1081.2526524184268 L 490 1061 L 469.6034377009252 1069.2450134250928"/></g><g transform="translate(-38,-6) scale(1,1)"><path fill="none" stroke="#000000" d="M 481.40755738928755 1081.2526524184268 L 490 1061 L 469.6034377009252 1069.2450134250928 L 481.40755738928755 1081.2526524184268" stroke-miterlimit="10"/></g><g transform="translate(-38,-6) scale(1,1)"><path fill="none" stroke="#000000" d="M 647 1119 L 606 1061" stroke-miterlimit="10"/></g><g transform="translate(-38,-6) scale(1,1)"><path fill="#FFFFFF" stroke="none" d="M 624.6073148203645 1072.7374543737492 L 606 1061 L 610.857724907607 1082.4569920706983"/></g><g transform="translate(-38,-6) scale(1,1)"><path fill="none" stroke="#000000" d="M 624.6073148203645 1072.7374543737492 L 606 1061 L 610.857724907607 1082.4569920706983 L 624.6073148203645 1072.7374543737492" stroke-miterlimit="10"/></g><g transform="translate(-38,-6) scale(1,1)"><rect fill="#C0C0C0" stroke="none" x="55" y="1063" width="168" height="102" opacity="0.2"/></g><g transform="translate(-38,-6) scale(1,1)"><rect fill="#ffffff" stroke="none" x="48" y="1056" width="168" height="102"/></g><g transform="translate(-38,-6) scale(1,1)"><path fill="none" stroke="#000000" d="M 48 1056 L 216 1056 L 216 1158 L 48 1158 L 48 1056 Z Z" stroke-miterlimit="10"/></g><g transform="translate(-38,-6) scale(1,1)"><path fill="none" stroke="#000000" d="M 48 1081 L 216 1081" stroke-miterlimit="10"/></g><g transform="translate(-38,-6) scale(1,1)"><path fill="none" stroke="#000000" d="M 48 1149 L 216 1149" stroke-miterlimit="10"/></g><g transform="translate(-38,-6) scale(1,1)"><g><path fill="none" stroke="none"/><text fill="#000000" stroke="none" font-family="Arial" font-size="13px" font-style="normal" font-weight="bold" text-decoration="none" x="59" y="1075.5">CommandLineArguments</text></g></g><g transform="translate(-38,-6) scale(1,1)"><g><path fill="none" stroke="none"/><text fill="#000000" stroke="none" font-family="Arial" font-size="13px" font-style="normal" font-weight="normal" text-decoration="none" x="53" y="1098.5">+text: bool*</text></g></g><g transform="translate(-38,-6) scale(1,1)"><g><path fill="none" stroke="none"/><text fill="#000000" stroke="none" font-family="Arial" font-size="13px" font-style="normal" font-weight="normal" text-decoration="none" x="53" y="1113.5">+startLevel: int*</text></g></g><g transform="translate(-38,-6) scale(1,1)"><g><path fill="none" stroke="none"/><text fill="#000000" stroke="none" font-family="Arial" font-size="13px" font-style="normal" font-weight="normal" text-decoration="none" x="53" y="1128.5">+scriptFile: string*</text></g></g><g transform="translate(-38,-6) scale(1,1)"><g><path fill="none" stroke="none"/><text fill="#000000" stroke="none" font-family="Arial" font-size="13px" font-style="normal" font-weight="normal" text-decoration="none" x="53" y="1143.5">+seed: int*</text></g></g></g></svg>